<svg xmlns="http://www.w3.org/2000/svg" viewBox="0 0 768 768"><defs><style>.cls-1{fill:#e0040b;}.cls-2{fill:#0052a0;}.cls-3{fill:#f8be00;}</style></defs><g id="Capa_2" data-name="Capa 2"><g id="Capa_1-2" data-name="Capa 1"><path class="cls-1" d="M154.81,370.89c-44.38,38.6-56,74.28-59.56,95.12C77.46,569.3,192.82,674.64,382,768,128.68,569.45,165.3,419.6,202.86,395.88c19.26-12.17,36.09-9.8,72.81,4.33-8-6.36-40.55-28.58-73.09-22.59C167.9,384,147.87,432.46,154.81,529.5a91.27,91.27,0,0,1-8-14.91c-1.69-3.9-3.18-8.69-4.8-16.62C131.27,445.64,145.86,389.22,154.81,370.89Z"/><path class="cls-1" d="M464.08,416.8c59.41-21.62,119-9.87,140.8,18.75,25.07,32.93,19.27,92.26-79.76,176.86a290.84,290.84,0,0,0,83.51-61,123.85,123.85,0,0,1-32.72,43.25c89.5-43.39,115.15-134.86,88.83-176.84S543.65,357.29,464.08,416.8Z"/></g><g id="Capa_2-2" data-name="Capa 2"><path class="cls-2" d="M205.05,348.53c21.64,2.91,71.89,12.78,114.59,53.19a191.5,191.5,0,0,1,36.79,48.06c-22.79,3.49-47.61,8.3-74,14.94-26.11,6.57-50,14-71.52,21.59l35.16,60.56A188.44,188.44,0,0,1,312.16,519a355.52,355.52,0,0,0-31.26,20.19c-10.53,7.6-19.84,15.19-28,22.42q18.46-5.58,37.77-12.33a900.2,900.2,0,0,0,86.92-35.73,811,811,0,0,1-5.86,92.28,814.78,814.78,0,0,1-18.55,100.29c-.39,1.54,21.81,13,31.25-4.17,16.93-30.76,15.73-139.17,20.51-153.47a195.67,195.67,0,0,1,5.68,23.45,92.24,92.24,0,0,1,1.48,16.28c.65,36.79-6,85.62-11.72,110.86,12.67,2.27,56.62,3.14,92.79-18.26,45-26.64,10.59-99.56-20.51-192.57,11.12-1.92,23.06-4.42,35.65-7.69,14.3-3.71,27.4-7.89,39.23-12.17a179.87,179.87,0,0,0-40.37,1.28A105.22,105.22,0,0,1,543,458.75a79.53,79.53,0,0,0-25.39-19.22c-28.22-13.41-55.73-5.59-63.16-3.21A177,177,0,0,0,418,390.19C339.85,319.83,223.17,344.43,205.05,348.53Z"/></g><g id="Capa_3" data-name="Capa 3"><path class="cls-3" d="M643,357.19a646.86,646.86,0,0,0-518,0c34.85-40.89,116.16-85.47,259-85.47S608.14,316.3,643,357.19Z"/><path class="cls-3" d="M110,322.14c-3.34-18.3-12.1-48.51-33.7-80.85C36.3,181.35,17.78,183,0,173.35a418.87,418.87,0,0,0,132-38.57,399.88,399.88,0,0,0,60.71-36.43,274.36,274.36,0,0,0,13,160.46c-3.67-6.22-29.76-29-52-28.12C129.41,231.66,109.88,262.49,110,322.14Z"/><path class="cls-3" d="M264,258.47c-1.13-3.54,1.09-21,10.62-31.47,11.39-12.55,35.06-13.26,61.9,9.57-2.15-4.94-28.92-69-19.07-115.34,8-37.7,27.95-51,38-60.46-9.82-.78-56.2,1.78-96.12,29.28C215.33,120.34,205.05,182.29,264,258.47Z"/><polygon class="cls-3" points="414.28 155.11 384 201.22 353.72 155.11 384 117.91 414.28 155.11"/><ellipse class="cls-3" cx="329.02" cy="21.67" rx="22.95" ry="21.67"/><ellipse class="cls-3" cx="79.93" cy="112.8" rx="22.95" ry="21.67"/><path class="cls-3" d="M658,322.14c3.34-18.3,12.1-48.51,33.7-80.85,40-59.94,58.56-58.26,76.34-67.94a418.87,418.87,0,0,1-132-38.57,399.88,399.88,0,0,1-60.71-36.43,274.36,274.36,0,0,1-13,160.46c3.67-6.22,29.76-29,52-28.12C638.59,231.66,658.12,262.49,658,322.14Z"/><path class="cls-3" d="M504,258.47c1.13-3.54-1.09-21-10.62-31.47-11.39-12.55-35.06-13.26-61.9,9.57,2.15-4.94,28.92-69,19.07-115.34-8-37.7-27.95-51-38-60.46,9.82-.78,56.2,1.78,96.12,29.28C552.67,120.34,563,182.29,504,258.47Z"/><ellipse class="cls-3" cx="438.98" cy="21.67" rx="22.95" ry="21.67"/><ellipse class="cls-3" cx="688.07" cy="112.8" rx="22.95" ry="21.67"/></g></g></svg>